<svg width="40" height="38" viewBox="0 0 40 38" fill="none" xmlns="http://www.w3.org/2000/svg">
    <g filter="url(#filter0_d)">
        <path d="M23.5 13C23.5 18.224 19.0461 22.5 13.5 22.5C7.95388 22.5 3.5 18.224 3.5 13C3.5 7.776 7.95388 3.5 13.5 3.5C19.0461 3.5 23.5 7.776 23.5 13Z" stroke="#04D68F" />
    </g>
    <g filter="url(#filter1_d)">
        <path d="M32.5 21C32.5 26.224 28.0461 30.5 22.5 30.5C16.9539 30.5 12.5 26.224 12.5 21C12.5 15.776 16.9539 11.5 22.5 11.5C28.0461 11.5 32.5 15.776 32.5 21Z" stroke="#339DFF" />
    </g>
    <defs>
        <filter id="filter0_d" x="0" y="0" width="31" height="30" filterUnits="userSpaceOnUse" color-interpolation-filters="sRGB">
            <feFlood flood-opacity="0" result="BackgroundImageFix" />
            <feColorMatrix in="SourceAlpha" type="matrix" values="0 0 0 0 0 0 0 0 0 0 0 0 0 0 0 0 0 0 127 0" />
            <feColorMatrix type="matrix" values="0 0 0 0 0 0 0 0 0 0 0 0 0 0 0 0 0 0 0.5 0" />
            <feBlend mode="normal" in2="BackgroundImageFix" result="effect1_dropShadow" />
            <feBlend mode="normal" in="SourceGraphic" in2="effect1_dropShadow" result="shape" />
        </filter>
        <filter id="filter1_d" x="9" y="8" width="31" height="30" filterUnits="userSpaceOnUse" color-interpolation-filters="sRGB">
            <feFlood flood-opacity="0" result="BackgroundImageFix" />
            <feColorMatrix in="SourceAlpha" type="matrix" values="0 0 0 0 0 0 0 0 0 0 0 0 0 0 0 0 0 0 127 0" />
            <feColorMatrix type="matrix" values="0 0 0 0 0 0 0 0 0 0 0 0 0 0 0 0 0 0 0.5 0" />
            <feBlend mode="normal" in2="BackgroundImageFix" result="effect1_dropShadow" />
            <feBlend mode="normal" in="SourceGraphic" in2="effect1_dropShadow" result="shape" />
        </filter>
    </defs>
</svg>