<svg width="14" height="14" viewBox="0 0 14 14" fill="none" xmlns="http://www.w3.org/2000/svg">
<path d="M6.97404 13.1798C5.41732 12.9747 4.10332 11.9695 3.33797 10.5052C3.22475 10.2886 3.41486 10.019 3.62396 10.0947C6.00164 10.9559 8.53595 9.08416 8.91205 6.22981C9.1287 4.58561 8.56571 2.97322 7.43418 1.99591C7.25976 1.84526 7.35183 1.51727 7.57491 1.49958C7.88763 1.47489 8.20059 1.48294 8.50991 1.52365C11.2958 1.89073 13.2134 4.79561 12.7889 8.01674C12.3651 11.2338 9.76346 13.5474 6.97404 13.1798Z" fill="#262F4D"/>
<path d="M2.33907 0.104358L1.9729 0.880044L1.15365 1.00483C1.00673 1.0271 0.947853 1.21633 1.0544 1.32472L1.6471 1.92816L1.50692 2.78059C1.48168 2.93467 1.63701 3.05009 1.7671 2.97803L2.5 2.57554L3.2329 2.97803C3.36299 3.0495 3.51832 2.93467 3.49308 2.78059L3.3529 1.92816L3.94561 1.32472C4.05215 1.21633 3.99327 1.0271 3.84635 1.00483L3.0271 0.880044L2.66093 0.104358C2.59533 -0.0339059 2.40523 -0.0356635 2.33907 0.104358Z" fill="#262F4D"/>
<path d="M5.33907 4.10436L4.9729 4.88004L4.15365 5.00483C4.00673 5.0271 3.94785 5.21633 4.0544 5.32472L4.6471 5.92816L4.50692 6.78059C4.48168 6.93467 4.63701 7.05009 4.7671 6.97803L5.5 6.57554L6.2329 6.97803C6.36299 7.0495 6.51832 6.93467 6.49308 6.78059L6.3529 5.92816L6.94561 5.32472C7.05215 5.21633 6.99327 5.0271 6.84635 5.00483L6.0271 4.88004L5.66093 4.10436C5.59533 3.96609 5.40523 3.96434 5.33907 4.10436Z" fill="#262F4D"/>
<path d="M1.33907 6.10436L0.972898 6.88004L0.153647 7.00483C0.00673163 7.0271 -0.0521468 7.21633 0.0543951 7.32472L0.647104 7.92816L0.506918 8.78059C0.481684 8.93467 0.637011 9.05009 0.767104 8.97803L1.5 8.57554L2.2329 8.97803C2.36299 9.0495 2.51832 8.93467 2.49308 8.78059L2.3529 7.92816L2.94561 7.32472C3.05215 7.21633 2.99327 7.0271 2.84635 7.00483L2.0271 6.88004L1.66093 6.10436C1.59533 5.96609 1.40523 5.96434 1.33907 6.10436Z" fill="#262F4D"/>
</svg>
