<svg width="16" height="13" viewBox="0 0 16 13" fill="none" xmlns="http://www.w3.org/2000/svg">
<path d="M14.38 8.26811C14.385 8.21988 14.4 8.17419 14.4 8.12595C14.4 7.22984 13.6825 6.50127 12.8 6.50127C12.485 6.50127 12.195 6.59774 11.9475 6.75513C11.5075 5.77016 10.535 5.07967 9.4 5.07967C7.855 5.07967 6.6 6.35149 6.6 7.92287C6.6 7.99902 6.6175 8.0701 6.6225 8.14372C5.3825 8.23765 4.4 9.27846 4.4 10.563C4.4 11.9084 5.475 13 6.8 13H13.6C14.925 13 16 11.9084 16 10.563C16 9.49424 15.32 8.59813 14.38 8.26811ZM3.62 7.6944C2.5275 6.58504 2.5275 4.78266 3.62 3.67584C4.7125 2.56649 6.4875 2.56649 7.58 3.67584C7.8225 3.92209 8.0025 4.20641 8.1375 4.50596C8.3825 4.41203 8.64 4.35364 8.905 4.31556L9.65 2.05878C9.75 1.75669 9.4675 1.47237 9.17 1.57137L6.975 2.31517L5.9375 0.21324C5.8 -0.0710799 5.4 -0.0710799 5.26 0.21324L4.225 2.31517L2.0275 1.57137C1.7325 1.47237 1.45 1.75923 1.5475 2.05878L2.28 4.28764L0.21 5.34114C-0.07 5.4833 -0.07 5.88694 0.21 6.0291L2.28 7.08006L1.5475 9.30892C1.4475 9.61101 1.73 9.89533 2.0275 9.79633L3.93 9.15407C4.0825 8.83929 4.28 8.55243 4.52 8.30365C4.1925 8.16657 3.885 7.96348 3.62 7.6944ZM3.5 5.68385C3.5 6.71959 4.2325 7.5827 5.1975 7.77309C5.3975 7.65378 5.605 7.5497 5.8275 7.47608C5.9625 6.35149 6.6025 5.38176 7.5125 4.81058C7.1825 4.07186 6.45 3.55399 5.6 3.55399C4.4425 3.55399 3.5 4.50849 3.5 5.68385Z" fill="white"/>
</svg>
